<svg width="96" height="102" viewBox="0 0 96 102" fill="none" xmlns="http://www.w3.org/2000/svg">
<path d="M61.142 31.2467L37.377 54.8941L47.948 65.4129L71.713 41.7654L61.142 31.2467Z" fill="#BDCCD4"/>
<path d="M60.7724 31.6144L57.0405 35.3279L67.6115 45.8467L71.3434 42.1331L60.7724 31.6144Z" fill="#8C969B"/>
<path d="M39.6114 52.6726L35.8794 56.3861L46.4504 66.9049L50.1824 63.1914L39.6114 52.6726Z" fill="#8C969B"/>
<path d="M10.1717 101.408L0.599418 91.8709C0.215556 91.4878 0 90.9689 0 90.4279C0 89.8869 0.215556 89.368 0.599418 88.9849L35.6645 54.1056C36.0495 53.7236 36.571 53.5092 37.1146 53.5092C37.6583 53.5092 38.1798 53.7236 38.5648 54.1056L48.7096 64.2003C48.905 64.3896 49.0603 64.6159 49.1663 64.8658C49.2723 65.1158 49.3269 65.3844 49.3269 65.6557C49.3269 65.927 49.2723 66.1955 49.1663 66.4455C49.0603 66.6955 48.905 66.9218 48.7096 67.111L13.0471 101.433C12.6584 101.801 12.141 102.005 11.6043 102C11.0677 101.995 10.5539 101.783 10.1717 101.408Z" fill="#242124"/>
<path d="M64.7211 7.06475L58.0405 0.417197C57.4815 -0.139067 56.5751 -0.139065 56.0161 0.417199L43.1038 13.2656C42.5448 13.8219 42.5448 14.7238 43.1038 15.28L49.7844 21.9276C50.3434 22.4839 51.2498 22.4839 51.8088 21.9276L64.7211 9.07917C65.2801 8.5229 65.2801 7.62102 64.7211 7.06475Z" fill="#009EC6"/>
<path d="M66.38 14.8758L62.648 11.1623L53.9342 19.833L57.6661 23.5465L66.38 14.8758Z" fill="#004E76"/>
<path d="M95.6243 38.2265C95.1264 35.9474 93.67 33.6684 90.9813 30.7948C90.952 30.7182 90.9099 30.647 90.8568 30.5842L71.7621 11.5715C71.4855 11.3037 71.1149 11.1538 70.7289 11.1538C70.343 11.1538 69.9723 11.3037 69.6958 11.5715L54.3354 26.856C54.1991 26.9907 54.091 27.1509 54.0172 27.3273C53.9434 27.5037 53.9054 27.693 53.9054 27.8841C53.9054 28.0752 53.9434 28.2644 54.0172 28.4408C54.091 28.6172 54.1991 28.7774 54.3354 28.9121L73.4301 47.9124C73.5654 48.048 73.7264 48.1556 73.9037 48.229C74.081 48.3024 74.2712 48.3402 74.4632 48.3402C74.6553 48.3402 74.8454 48.3024 75.0228 48.229C75.2001 48.1556 75.361 48.048 75.4964 47.9124L85.3425 38.1026C86.3851 38.5271 87.2721 39.2591 87.8841 40.2002C88.4961 41.1413 88.8037 42.2464 88.7656 43.3667V53.2756C88.7656 53.2756 88.7656 56.5951 91.2551 56.9914C92.363 57.1772 95.6118 57.6107 95.6118 53.8949C95.6243 53.8949 96.4707 42.0538 95.6243 38.2265Z" fill="#009EC6"/>
<path d="M25.0275 77.1919L25.0187 77.1831C24.3625 76.5301 23.2985 76.5301 22.6422 77.1831L14.4565 85.3283C13.8003 85.9813 13.8003 87.0401 14.4565 87.6931L14.4653 87.7018C15.1216 88.3548 16.1856 88.3548 16.8418 87.7018L25.0275 79.5566C25.6838 78.9036 25.6838 77.8449 25.0275 77.1919Z" fill="white"/>
</svg>
